<?xml version="1.0" standalone="no"?>
<!DOCTYPE svg PUBLIC "-//W3C//DTD SVG 20010904//EN"
 "http://www.w3.org/TR/2001/REC-SVG-20010904/DTD/svg10.dtd">
<svg version="1.0" xmlns="http://www.w3.org/2000/svg"
 width="256.000000pt" height="256.000000pt" viewBox="0 0 256.000000 256.000000"
 preserveAspectRatio="xMidYMid meet">
<metadata>
Created by potrace 1.13, written by Peter Selinger 2001-2015
</metadata>
<g transform="translate(0.000000,256.000000) scale(0.100000,-0.100000)"
fill="#000000" stroke="none">
<path d="M1240 2168 c-238 -25 -461 -100 -515 -175 -11 -15 -33 -43 -50 -62
l-30 -34 0 -133 c0 -145 -5 -138 59 -86 26 21 67 42 199 101 173 78 508 106
742 62 81 -15 216 -33 270 -36 14 0 7 87 -12 156 -18 69 -50 104 -122 136 -31
14 -71 31 -88 39 -18 8 -33 19 -33 23 0 5 -26 8 -57 8 -32 0 -110 1 -173 4
-63 3 -149 1 -190 -3z"/>
<path d="M2170 1659 c-285 -61 -612 -104 -950 -124 -191 -12 -323 -51 -485
-143 -39 -22 -98 -52 -132 -66 -61 -26 -288 -86 -398 -105 -32 -6 -63 -15 -69
-21 -17 -17 22 -157 55 -194 34 -39 102 -63 204 -71 124 -10 179 -14 211 -15
21 0 42 -10 63 -31 20 -19 38 -28 48 -25 9 4 13 9 10 12 -2 3 6 16 19 29 19
19 22 30 17 62 -10 60 -9 68 7 68 8 0 19 6 23 13 4 6 16 12 25 12 20 -1 54
-25 46 -32 -10 -11 74 -19 120 -13 54 8 70 25 63 64 -5 22 -2 30 11 34 9 3 25
8 35 12 14 6 16 4 11 -11 -4 -11 -14 -27 -22 -37 -11 -12 -12 -21 -5 -28 13
-13 38 23 48 71 4 19 11 40 15 45 4 6 11 30 15 55 13 88 22 97 64 60 19 -16
22 -25 16 -57 -3 -22 -1 -51 4 -66 7 -17 7 -36 1 -51 -7 -19 -5 -30 10 -49 37
-47 36 -71 -9 -117 -38 -39 -40 -45 -34 -84 3 -22 13 -50 21 -61 11 -15 13
-16 9 -3 -4 10 1 24 9 33 13 12 20 13 47 1 25 -10 31 -18 29 -35 -3 -16 0 -21
9 -16 8 5 10 4 5 -3 -4 -7 -15 -12 -25 -12 -10 0 -30 -9 -44 -20 -34 -27 -43
-25 -51 11 -3 18 -10 28 -17 24 -6 -4 -8 -16 -6 -27 4 -14 2 -18 -10 -14 -8 3
-24 -1 -36 -9 -36 -25 -50 -19 -30 13 10 15 24 33 31 41 7 7 10 16 7 19 -5 6
-25 -11 -82 -71 -17 -18 -35 -26 -51 -25 -14 2 -27 -3 -30 -11 -3 -10 0 -12
11 -8 11 4 13 0 10 -13 -3 -10 0 -28 7 -40 10 -19 14 -20 28 -8 42 34 91 52
166 61 131 16 159 14 186 -11 28 -26 29 -26 54 -7 24 18 81 21 70 3 -5 -7 -3
-8 6 -3 8 5 19 -1 31 -16 10 -13 21 -21 24 -17 4 3 -3 16 -14 27 -12 12 -21
28 -21 36 0 20 32 33 38 16 2 -7 14 -22 27 -34 13 -12 26 -32 30 -44 5 -19 2
-23 -14 -23 -13 0 -22 -7 -23 -17 0 -10 -2 -22 -3 -28 -2 -5 -3 -18 -4 -28 0
-10 -6 -15 -11 -12 -6 4 -17 2 -24 -5 -11 -8 -18 -5 -34 14 -14 19 -22 22 -31
13 -8 -8 -11 -8 -11 2 0 8 -8 10 -22 6 -15 -4 -18 -3 -10 3 10 6 8 12 -7 26
-14 13 -21 14 -26 6 -4 -7 -1 -17 6 -22 10 -7 6 -8 -13 -4 l-26 6 21 -39 c12
-22 27 -37 34 -34 7 3 17 -6 23 -22 12 -33 12 -35 0 -35 -19 0 -60 -52 -60
-75 0 -25 -43 -77 -77 -94 -28 -14 -28 -14 -30 7 -1 9 -4 26 -6 37 -3 11 -6
23 -6 28 -1 4 -6 7 -12 7 -7 0 -9 -15 -5 -42 4 -31 3 -37 -3 -23 -9 18 -10 18
-10 2 -1 -10 -6 -15 -11 -12 -14 8 -50 -4 -50 -17 0 -5 7 -8 15 -4 8 3 15 1
15 -4 0 -5 18 -18 40 -28 22 -10 38 -21 34 -25 -3 -3 22 -3 57 0 70 5 161 46
288 127 84 54 195 157 213 197 7 16 16 29 19 29 11 0 19 -42 19 -103 0 -107
-105 -280 -219 -361 -65 -46 -68 -50 -53 -67 16 -18 39 -19 474 -19 l458 0 0
54 c0 52 -1 54 -35 71 -20 9 -79 45 -131 81 -53 35 -98 64 -101 64 -3 0 -17 8
-31 19 -15 10 -48 26 -73 35 -62 23 -155 115 -197 193 -18 34 -51 78 -75 97
l-42 35 3 118 c2 64 5 119 8 122 2 2 14 -5 27 -17 28 -26 68 -28 89 -4 9 9 26
40 39 67 12 28 33 64 45 80 30 41 64 156 68 233 1 35 7 67 12 70 5 4 37 26 69
48 118 81 172 160 181 262 l4 52 -82 -1 c-46 -1 -121 -10 -168 -20z m-436
-455 c9 -3 12 -12 8 -22 -5 -15 -4 -15 11 -3 20 16 23 1 5 -18 -11 -10 -9 -11
7 -5 18 7 18 6 6 -9 -7 -9 -19 -17 -26 -17 -13 0 -10 -34 5 -55 4 -5 10 -19
14 -29 5 -15 4 -17 -7 -8 -17 15 -28 5 -19 -16 5 -14 3 -15 -10 -4 -14 11 -16
9 -13 -23 2 -19 -1 -35 -6 -35 -13 0 -11 -44 3 -58 10 -10 10 -15 -2 -22 -12
-8 -10 -10 10 -10 18 0 21 -3 13 -11 -6 -6 -9 -18 -6 -25 6 -17 -13 -19 -21
-1 -3 8 -8 7 -16 -6 -9 -14 -15 -16 -26 -6 -20 17 -18 42 4 37 21 -6 27 38 6
46 -8 3 -14 12 -14 20 0 10 -6 13 -17 9 -15 -6 -16 -4 -5 9 11 14 9 16 -12 14
-20 -1 -22 -4 -15 -18 7 -13 6 -18 -5 -18 -10 0 -14 -9 -12 -27 1 -16 -1 -33
-6 -40 -5 -6 -5 -14 2 -18 5 -3 10 -1 10 6 0 7 2 10 5 7 3 -3 3 -12 -1 -21 -4
-12 -13 -15 -29 -11 -38 9 -51 -6 -24 -27 l24 -19 -25 -1 c-14 -1 -29 0 -35 1
-5 2 -18 2 -27 2 -10 0 -20 4 -23 9 -10 15 22 40 42 32 15 -5 14 -2 -4 16 -13
12 -36 24 -53 27 -29 6 -40 27 -20 39 6 3 10 16 10 29 0 12 6 28 13 35 10 10
9 11 -3 7 -10 -4 -26 10 -49 44 -19 28 -31 53 -28 56 3 4 26 2 49 -4 24 -6 69
-12 101 -13 48 -2 61 1 79 19 l22 21 -24 9 -24 9 23 12 c12 7 29 10 36 7 14
-5 87 69 77 79 -7 7 2 7 22 -1z"/>
<path d="M905 340 c-21 -46 -34 -58 -95 -92 -103 -57 -126 -71 -140 -83 -18
-15 -95 -54 -130 -66 -14 -5 -81 -29 -150 -53 l-125 -45 363 0 c356 -1 363 -1
352 18 -5 11 -10 38 -10 60 0 22 -9 64 -21 93 -17 45 -20 65 -14 130 8 87 -2
100 -30 38z"/>
</g>
</svg>
